<?xml version="1.0" encoding="UTF-8"?>
<svg id="a" data-name="圖層 1" xmlns="http://www.w3.org/2000/svg" viewBox="0 0 37 49">
  <style>
    * { fill: #fff; }
  </style>
  <path d="m30.39,43.79c.83,0,1.51-.68,1.51-1.51V15.04h-7.57c-1.67,0-3.03-1.35-3.03-3.03v-7.57H6.18c-.83,0-1.51.68-1.51,1.51v36.32c0,.83.68,1.51,1.51,1.51h24.21ZM.12,5.97C.12,2.63,2.84-.09,6.18-.09h15.65c1.61,0,3.15.63,4.28,1.77l8.56,8.56c1.13,1.13,1.77,2.68,1.77,4.28v27.76c0,3.34-2.71,6.05-6.05,6.05H6.18c-3.34,0-6.05-2.71-6.05-6.05V5.97Z"/>
  <rect x="10.28" y="21.87" width="16" height="4.5" rx="2.25" ry="2.25"/>
  <rect x="10.28" y="21.87" width="16" height="4.5" rx="2.25" ry="2.25" transform="translate(-5.84 42.4) rotate(-90)"/>
</svg>
